<svg xmlns="http://www.w3.org/2000/svg" viewBox="0 0 32 32" fill="none"><defs><linearGradient id="a" x1="0" y1="0" x2="1" y2="1"><stop stop-color="#EF5350"/><stop offset="1" stop-color="#B71C1C"/></linearGradient></defs><path d="M15 10.4c-2.4-2.6-3.2-5.8-1.8-7.8 1.8 1.2 2.8 4.2 2.6 7.4" fill="#43A047"/><path d="M17 10.4c2-3 4.6-4.6 6.8-3.8-.6 2.2-3.4 4-6.8 3.8Z" fill="#66BB6A"/><circle cx="16" cy="17.6" r="7.4" fill="url(#a)"/><path d="M11.4 22.2c1.4 1.6 3 2.4 4.6 2.4s3.2-.8 4.6-2.4c-.6 2.6-2.4 4-3.6 4.6L16 30.4l-1-3.6c-1.2-.6-3-2-3.6-4.6Z" fill="#FAFAFA"/><ellipse cx="13" cy="15" rx="1.4" ry="2" fill="#fff" fill-opacity=".3"/></svg>