<svg xmlns="http://www.w3.org/2000/svg" viewBox="0 0 32 32" fill="none"><defs><linearGradient id="a" x1="0" y1="0" x2="1" y2="0"><stop stop-color="#E0E0E0"/><stop offset="1" stop-color="#9E9E9E"/></linearGradient><linearGradient id="b" x1="0" y1="0" x2="0" y2="1"><stop stop-color="#7E57C2"/><stop offset="1" stop-color="#4527A0"/></linearGradient></defs><rect x="13.6" y="2" width="4.8" height="2.6" rx=".8" fill="#4527A0"/><path d="M9.4 4.6h13.2v4.4H9.4z" fill="url(#b)"/><path d="M9.6 9h12.8l-1.4 19.2c-.1 1-.9 1.8-1.9 1.8h-6.2c-1 0-1.8-.8-1.9-1.8L9.6 9Z" fill="url(#a)" fill-opacity=".9"/><path d="M10.4 18h11.2l-.7 10.2c-.1 1-.9 1.8-1.9 1.8h-6c-1 0-1.8-.8-1.9-1.8L10.4 18Z" fill="#8D6E63"/><path d="M12 12h2M12 15h2" stroke="#616161" stroke-width=".8"/></svg>